# xmcd CD database file
#
# Track frame offsets:
#	150
#	44747
#	91600
#	127032
#	167615
#	185125
#	220390
#	235457
#	251615
#	274100
#
# Disc length: 3843 seconds
#
# Revision: 0
# Processed by: cddbd v1.5PL3 Copyright (c) Steve Scherf et al.
# Submitted via: CDex 1.40Release
#
DISCID=950f010a
DTITLE=CLUB db STATION - クリック&デッド NETWAYスイーパーズ mission01:インターネットカルト
DYEAR=1997
DGENRE=Unknown
TTITLE0=1/4
TTITLE1=2/4
TTITLE2=3/4
TTITLE3=4/4
TTITLE4=HERE
TTITLE5=金月×桑島 NET CAFE ブレイク
TTITLE6=ミニシアター
TTITLE7=escape>NHS
TTITLE8=クリック&デッド プロダクションノーツ
TTITLE9=Pyramid Inside
EXTD=YEAR: 1997
EXTT0=
EXTT1=
EXTT2=
EXTT3=
EXTT4=
EXTT5=
EXTT6=
EXTT7=
EXTT8=
EXTT9=
PLAYORDER=
